<svg width="297" height="289" viewBox="0 0 297 289" fill="none" xmlns="http://www.w3.org/2000/svg">
<path d="M140.077 234.24C152.119 234.24 163.388 232.004 173.882 227.531C184.548 223.058 194.784 217.381 204.589 210.5L235.555 254.11C223.513 264.26 208.976 272.604 191.945 279.141C174.914 285.678 156.678 288.947 137.238 288.947C108.681 288.947 84.1662 283.012 63.6942 271.141C43.3943 259.099 27.7393 242.412 16.7292 221.08C5.89106 199.576 0.472015 174.631 0.472015 146.245C0.472015 118.204 5.97708 93.1731 16.9872 71.1528C28.1694 48.9605 43.9964 31.5852 64.4684 19.0268C85.1124 6.46832 109.713 0.189102 138.271 0.189102C157.882 0.189102 175.602 3.02766 191.429 8.70478C207.428 14.2098 222.051 22.4674 235.297 33.4775L205.106 75.2816C194.956 68.2283 184.462 62.8952 173.623 59.2825C162.957 55.4978 151.861 53.6054 140.335 53.6054C120.207 53.6054 103.778 60.9169 91.0475 75.5397C78.4891 89.9905 72.2099 113.559 72.2099 146.245C72.2099 167.749 75.1344 184.953 80.9836 197.855C87.0047 210.758 95.0903 220.048 105.24 225.725C115.562 231.402 127.174 234.24 140.077 234.24Z" fill="#F8F9FA"/>
<path d="M190.425 144.74C190.425 135.106 192.748 126.246 197.393 118.161C202.21 110.075 208.661 103.624 216.746 98.8072C224.832 93.9902 233.778 91.5818 243.584 91.5818C253.562 91.5818 262.593 93.9902 270.679 98.8072C278.764 103.624 285.13 110.075 289.775 118.161C294.592 126.246 297 135.106 297 144.74C297 154.374 294.592 163.32 289.775 171.577C285.13 179.663 278.764 186.114 270.679 190.931C262.593 195.748 253.562 198.156 243.584 198.156C233.778 198.156 224.832 195.748 216.746 190.931C208.661 186.114 202.21 179.663 197.393 171.577C192.748 163.32 190.425 154.374 190.425 144.74Z" fill="#FF7A00"/>
</svg>
