<svg width="1131" height="162" viewBox="0 0 1131 162" fill="none" xmlns="http://www.w3.org/2000/svg">
<path d="M77.936 130.792C84.656 130.792 90.944 129.544 96.8 127.048C102.752 124.552 108.464 121.384 113.936 117.544L131.216 141.88C124.496 147.544 116.384 152.2 106.88 155.848C97.376 159.496 87.2 161.32 76.352 161.32C60.416 161.32 46.736 158.008 35.312 151.384C23.984 144.664 15.248 135.352 9.10398 123.448C3.05598 111.448 0.0319824 97.528 0.0319824 81.688C0.0319824 66.04 3.10398 52.072 9.24798 39.784C15.488 27.4 24.32 17.704 35.744 10.696C47.264 3.68796 60.992 0.18396 76.928 0.18396C87.872 0.18396 97.76 1.76797 106.592 4.93598C115.52 8.00797 123.68 12.616 131.072 18.76L114.224 42.088C108.56 38.152 102.704 35.176 96.656 33.16C90.704 31.048 84.512 29.992 78.08 29.992C66.848 29.992 57.68 34.072 50.576 42.232C43.568 50.296 40.064 63.448 40.064 81.688C40.064 93.688 41.696 103.288 44.96 110.488C48.32 117.688 52.832 122.872 58.496 126.04C64.256 129.208 70.736 130.792 77.936 130.792Z" fill="#F8F9FA"/>
<path d="M175.311 157V130.648H196.767V30.712H175.311V4.50397H225.711L232.767 39.496C238.335 26.536 245.343 16.792 253.791 10.264C262.239 3.63997 272.847 0.327967 285.615 0.327967C290.511 0.327967 294.831 0.711967 298.576 1.47997C302.415 2.24797 306.063 3.25597 309.52 4.50397L298.143 36.472C295.167 35.704 292.335 35.128 289.647 34.744C286.959 34.264 283.935 34.024 280.576 34.024C270.015 34.024 260.799 38.152 252.927 46.408C245.151 54.568 239.103 65.656 234.783 79.672V130.648H265.167V157H175.311ZM277.408 63.976V23.512L282.591 4.50397H309.52L302.751 63.976H277.408Z" fill="#F8F9FA"/>
<path d="M378.959 92.344C379.727 101.848 381.887 109.576 385.439 115.528C389.087 121.48 393.743 125.848 399.407 128.632C405.071 131.416 411.359 132.808 418.271 132.808C425.567 132.808 432.431 131.656 438.863 129.352C445.295 127.048 451.631 123.832 457.871 119.704L473.711 141.448C466.607 147.4 458.111 152.2 448.223 155.848C438.431 159.496 427.631 161.32 415.823 161.32C399.311 161.32 385.391 157.912 374.063 151.096C362.831 144.28 354.335 134.824 348.575 122.728C342.815 110.632 339.935 96.712 339.935 80.968C339.935 65.8 342.767 52.12 348.431 39.928C354.095 27.736 362.255 18.088 372.911 10.984C383.567 3.78396 396.431 0.18396 411.503 0.18396C425.519 0.18396 437.615 3.25596 447.791 9.39996C457.967 15.544 465.839 24.376 471.407 35.896C476.975 47.32 479.759 61.096 479.759 77.224C479.759 79.816 479.663 82.456 479.471 85.144C479.375 87.832 479.231 90.232 479.039 92.344H378.959ZM411.647 26.968C402.431 26.968 394.847 30.28 388.895 36.904C383.039 43.432 379.583 53.8 378.527 68.008H442.751C442.559 55.144 439.871 45.112 434.687 37.912C429.599 30.616 421.919 26.968 411.647 26.968Z" fill="#F8F9FA"/>
<path d="M657.342 4.50397L604.927 157H560.286L507.582 4.50397H548.478L583.182 126.616L618.607 4.50397H657.342Z" fill="#F8F9FA"/>
<path d="M691.934 157V4.50397H725.054L727.79 23.368C734.318 15.688 741.662 9.92797 749.822 6.08796C757.982 2.15196 766.766 0.18396 776.174 0.18396C789.902 0.18396 800.366 4.16796 807.566 12.136C814.766 20.008 818.366 31.096 818.366 45.4V157H780.35V60.232C780.35 52.552 779.87 46.408 778.91 41.8C777.95 37.096 776.126 33.736 773.438 31.72C770.75 29.608 766.862 28.552 761.774 28.552C757.646 28.552 753.662 29.464 749.822 31.288C746.078 33.112 742.526 35.56 739.166 38.632C735.902 41.704 732.83 45.112 729.95 48.856V157H691.934Z" fill="#F8F9FA"/>
<path d="M986.302 116.824C986.302 122.68 987.165 126.952 988.893 129.64C990.621 132.232 993.405 134.2 997.245 135.544L989.037 161.032C980.877 160.168 973.917 158.152 968.157 154.984C962.493 151.72 958.125 146.872 955.053 140.44C949.293 147.448 941.997 152.68 933.165 156.136C924.429 159.592 915.261 161.32 905.661 161.32C890.109 161.32 877.774 156.904 868.654 148.072C859.534 139.24 854.974 127.768 854.974 113.656C854.974 97.432 861.31 84.952 873.982 76.216C886.75 67.384 904.797 62.968 928.125 62.968H949.438V54.76C949.438 45.736 946.654 39.208 941.086 35.176C935.518 31.048 927.501 28.984 917.037 28.984C912.141 28.984 905.997 29.656 898.605 31C891.309 32.248 883.773 34.216 875.997 36.904L866.925 10.84C876.621 7.19196 886.365 4.50396 896.157 2.77596C906.045 1.04796 915.022 0.18396 923.086 0.18396C944.494 0.18396 960.382 4.74396 970.75 13.864C981.118 22.888 986.302 35.704 986.302 52.312V116.824ZM918.045 133.816C923.805 133.816 929.613 132.184 935.469 128.92C941.421 125.656 946.077 121.096 949.438 115.24V85.576H934.461C920.349 85.576 910.125 87.832 903.789 92.344C897.549 96.856 894.43 103.24 894.43 111.496C894.43 118.6 896.445 124.12 900.477 128.056C904.509 131.896 910.365 133.816 918.045 133.816Z" fill="#F8F9FA"/>
<path d="M1071 131.664C1071 126.288 1072.3 121.344 1074.89 116.832C1077.58 112.32 1081.18 108.72 1085.69 106.032C1090.2 103.344 1095.19 102 1100.66 102C1106.23 102 1111.27 103.344 1115.78 106.032C1120.3 108.72 1123.85 112.32 1126.44 116.832C1129.13 121.344 1130.47 126.288 1130.47 131.664C1130.47 137.04 1129.13 142.032 1126.44 146.64C1123.85 151.152 1120.3 154.752 1115.78 157.44C1111.27 160.128 1106.23 161.472 1100.66 161.472C1095.19 161.472 1090.2 160.128 1085.69 157.44C1081.18 154.752 1077.58 151.152 1074.89 146.64C1072.3 142.032 1071 137.04 1071 131.664Z" fill="#FF7A00"/>
</svg>
